<mxfile host="app.diagrams.net" agent="Mozilla/5.0 (X11; Linux x86_64) AppleWebKit/537.36 (KHTML, like Gecko) Chrome/135.0.0.0 Safari/537.36" version="26.2.13">
  <diagram name="第 1 页" id="OUNnUQod2xvK-KVeyG47">
    <mxGraphModel dx="375" dy="508" grid="1" gridSize="10" guides="1" tooltips="1" connect="1" arrows="1" fold="1" page="1" pageScale="1" pageWidth="827" pageHeight="1169" math="0" shadow="0">
      <root>
        <mxCell id="0" />
        <mxCell id="1" parent="0" />
        <mxCell id="dnJYd_XQ4KpiOf3K0V7W-134" value="" style="group" vertex="1" connectable="0" parent="1">
          <mxGeometry x="20" y="20" width="400" height="400" as="geometry" />
        </mxCell>
        <mxCell id="dnJYd_XQ4KpiOf3K0V7W-11" value="" style="shape=stencil(rZfBboMwDEC/ZQcfmYBAgGOgdN/BRjaiUUDA2u7vF6Cg0tEobSxxwHby/JRIIQBJuiJrOLh2lR04kB24rmOfHVtm3lqRy1C+FXPBnuLTTZx1Df/op+Qxa0X2XvKp0vVt/c1PIu8vDFEVvBX9UCUp2EyOGR6SfNYt/2rrnypfFZayKMsJNqb2m4OaTLaZm1pXXZ1X/7bjeuaLZQ0vqQ/Mg4hCGkKcQhxBSoE5EFJZlUPuAw71cTA7T/0u6/K7iratZ0ApqivAsrR4iCV+BIKO0ALMuyHXPgTGIA0gZhDvTTbBQVlCHYbKAmMj9RgqC4JgocdQWXgIFnoMlYWPYKHHUFlQBAs9hsoiQLDQY6gsQgQLPYbKIkKw0GPMp10ALB6/PU+dds669VP2zxz2awvX2MJFsCDGFgTBwjO28BAsfGMLH8GCGltQBIvA2CJAsAiNLUIEi8jYInrIgiQyP17Qt2p3r/bjtH//BmN2+nMZE38=);whiteSpace=wrap;html=1;" vertex="1" parent="dnJYd_XQ4KpiOf3K0V7W-134">
          <mxGeometry width="400" height="400" as="geometry" />
        </mxCell>
        <mxCell id="dnJYd_XQ4KpiOf3K0V7W-12" value="0" style="text;html=1;align=center;verticalAlign=middle;whiteSpace=wrap;rounded=0;" vertex="1" parent="dnJYd_XQ4KpiOf3K0V7W-134">
          <mxGeometry x="5" y="5" width="30" height="30" as="geometry" />
        </mxCell>
        <mxCell id="dnJYd_XQ4KpiOf3K0V7W-13" value="0" style="text;html=1;align=center;verticalAlign=middle;whiteSpace=wrap;rounded=0;" vertex="1" parent="dnJYd_XQ4KpiOf3K0V7W-134">
          <mxGeometry x="45" y="5" width="30" height="30" as="geometry" />
        </mxCell>
        <mxCell id="dnJYd_XQ4KpiOf3K0V7W-19" value="0" style="text;html=1;align=center;verticalAlign=middle;whiteSpace=wrap;rounded=0;" vertex="1" parent="dnJYd_XQ4KpiOf3K0V7W-134">
          <mxGeometry x="85" y="5" width="30" height="30" as="geometry" />
        </mxCell>
        <mxCell id="dnJYd_XQ4KpiOf3K0V7W-20" value="0" style="text;html=1;align=center;verticalAlign=middle;whiteSpace=wrap;rounded=0;" vertex="1" parent="dnJYd_XQ4KpiOf3K0V7W-134">
          <mxGeometry x="125" y="5" width="30" height="30" as="geometry" />
        </mxCell>
        <mxCell id="dnJYd_XQ4KpiOf3K0V7W-21" value="0" style="text;html=1;align=center;verticalAlign=middle;whiteSpace=wrap;rounded=0;" vertex="1" parent="dnJYd_XQ4KpiOf3K0V7W-134">
          <mxGeometry x="165" y="5" width="30" height="30" as="geometry" />
        </mxCell>
        <mxCell id="dnJYd_XQ4KpiOf3K0V7W-22" value="0" style="text;html=1;align=center;verticalAlign=middle;whiteSpace=wrap;rounded=0;" vertex="1" parent="dnJYd_XQ4KpiOf3K0V7W-134">
          <mxGeometry x="205" y="5" width="30" height="30" as="geometry" />
        </mxCell>
        <mxCell id="dnJYd_XQ4KpiOf3K0V7W-23" value="0" style="text;html=1;align=center;verticalAlign=middle;whiteSpace=wrap;rounded=0;" vertex="1" parent="dnJYd_XQ4KpiOf3K0V7W-134">
          <mxGeometry x="245" y="5" width="30" height="30" as="geometry" />
        </mxCell>
        <mxCell id="dnJYd_XQ4KpiOf3K0V7W-24" value="0" style="text;html=1;align=center;verticalAlign=middle;whiteSpace=wrap;rounded=0;" vertex="1" parent="dnJYd_XQ4KpiOf3K0V7W-134">
          <mxGeometry x="285" y="5" width="30" height="30" as="geometry" />
        </mxCell>
        <mxCell id="dnJYd_XQ4KpiOf3K0V7W-25" value="0" style="text;html=1;align=center;verticalAlign=middle;whiteSpace=wrap;rounded=0;" vertex="1" parent="dnJYd_XQ4KpiOf3K0V7W-134">
          <mxGeometry x="323.5" y="5" width="30" height="30" as="geometry" />
        </mxCell>
        <mxCell id="dnJYd_XQ4KpiOf3K0V7W-26" value="0" style="text;html=1;align=center;verticalAlign=middle;whiteSpace=wrap;rounded=0;" vertex="1" parent="dnJYd_XQ4KpiOf3K0V7W-134">
          <mxGeometry x="363.5" y="5" width="30" height="30" as="geometry" />
        </mxCell>
        <mxCell id="dnJYd_XQ4KpiOf3K0V7W-27" value="0" style="text;html=1;align=center;verticalAlign=middle;whiteSpace=wrap;rounded=0;" vertex="1" parent="dnJYd_XQ4KpiOf3K0V7W-134">
          <mxGeometry x="5" y="45" width="30" height="30" as="geometry" />
        </mxCell>
        <mxCell id="dnJYd_XQ4KpiOf3K0V7W-28" value="0" style="text;html=1;align=center;verticalAlign=middle;whiteSpace=wrap;rounded=0;" vertex="1" parent="dnJYd_XQ4KpiOf3K0V7W-134">
          <mxGeometry x="45" y="45" width="30" height="30" as="geometry" />
        </mxCell>
        <mxCell id="dnJYd_XQ4KpiOf3K0V7W-29" value="0" style="text;html=1;align=center;verticalAlign=middle;whiteSpace=wrap;rounded=0;" vertex="1" parent="dnJYd_XQ4KpiOf3K0V7W-134">
          <mxGeometry x="85" y="45" width="30" height="30" as="geometry" />
        </mxCell>
        <mxCell id="dnJYd_XQ4KpiOf3K0V7W-30" value="0" style="text;html=1;align=center;verticalAlign=middle;whiteSpace=wrap;rounded=0;" vertex="1" parent="dnJYd_XQ4KpiOf3K0V7W-134">
          <mxGeometry x="125" y="45" width="30" height="30" as="geometry" />
        </mxCell>
        <mxCell id="dnJYd_XQ4KpiOf3K0V7W-31" value="0" style="text;html=1;align=center;verticalAlign=middle;whiteSpace=wrap;rounded=0;" vertex="1" parent="dnJYd_XQ4KpiOf3K0V7W-134">
          <mxGeometry x="165" y="45" width="30" height="30" as="geometry" />
        </mxCell>
        <mxCell id="dnJYd_XQ4KpiOf3K0V7W-32" value="0" style="text;html=1;align=center;verticalAlign=middle;whiteSpace=wrap;rounded=0;" vertex="1" parent="dnJYd_XQ4KpiOf3K0V7W-134">
          <mxGeometry x="205" y="45" width="30" height="30" as="geometry" />
        </mxCell>
        <mxCell id="dnJYd_XQ4KpiOf3K0V7W-33" value="0" style="text;html=1;align=center;verticalAlign=middle;whiteSpace=wrap;rounded=0;" vertex="1" parent="dnJYd_XQ4KpiOf3K0V7W-134">
          <mxGeometry x="245" y="45" width="30" height="30" as="geometry" />
        </mxCell>
        <mxCell id="dnJYd_XQ4KpiOf3K0V7W-34" value="0" style="text;html=1;align=center;verticalAlign=middle;whiteSpace=wrap;rounded=0;" vertex="1" parent="dnJYd_XQ4KpiOf3K0V7W-134">
          <mxGeometry x="285" y="45" width="30" height="30" as="geometry" />
        </mxCell>
        <mxCell id="dnJYd_XQ4KpiOf3K0V7W-35" value="0" style="text;html=1;align=center;verticalAlign=middle;whiteSpace=wrap;rounded=0;" vertex="1" parent="dnJYd_XQ4KpiOf3K0V7W-134">
          <mxGeometry x="323.5" y="45" width="30" height="30" as="geometry" />
        </mxCell>
        <mxCell id="dnJYd_XQ4KpiOf3K0V7W-36" value="0" style="text;html=1;align=center;verticalAlign=middle;whiteSpace=wrap;rounded=0;" vertex="1" parent="dnJYd_XQ4KpiOf3K0V7W-134">
          <mxGeometry x="363.5" y="45" width="30" height="30" as="geometry" />
        </mxCell>
        <mxCell id="dnJYd_XQ4KpiOf3K0V7W-37" value="0" style="text;html=1;align=center;verticalAlign=middle;whiteSpace=wrap;rounded=0;" vertex="1" parent="dnJYd_XQ4KpiOf3K0V7W-134">
          <mxGeometry x="5" y="85" width="30" height="30" as="geometry" />
        </mxCell>
        <mxCell id="dnJYd_XQ4KpiOf3K0V7W-38" value="0" style="text;html=1;align=center;verticalAlign=middle;whiteSpace=wrap;rounded=0;" vertex="1" parent="dnJYd_XQ4KpiOf3K0V7W-134">
          <mxGeometry x="45" y="85" width="30" height="30" as="geometry" />
        </mxCell>
        <mxCell id="dnJYd_XQ4KpiOf3K0V7W-39" value="0" style="text;html=1;align=center;verticalAlign=middle;whiteSpace=wrap;rounded=0;" vertex="1" parent="dnJYd_XQ4KpiOf3K0V7W-134">
          <mxGeometry x="85" y="85" width="30" height="30" as="geometry" />
        </mxCell>
        <mxCell id="dnJYd_XQ4KpiOf3K0V7W-40" value="0" style="text;html=1;align=center;verticalAlign=middle;whiteSpace=wrap;rounded=0;" vertex="1" parent="dnJYd_XQ4KpiOf3K0V7W-134">
          <mxGeometry x="125" y="85" width="30" height="30" as="geometry" />
        </mxCell>
        <mxCell id="dnJYd_XQ4KpiOf3K0V7W-41" value="0" style="text;html=1;align=center;verticalAlign=middle;whiteSpace=wrap;rounded=0;" vertex="1" parent="dnJYd_XQ4KpiOf3K0V7W-134">
          <mxGeometry x="165" y="85" width="30" height="30" as="geometry" />
        </mxCell>
        <mxCell id="dnJYd_XQ4KpiOf3K0V7W-42" value="0" style="text;html=1;align=center;verticalAlign=middle;whiteSpace=wrap;rounded=0;" vertex="1" parent="dnJYd_XQ4KpiOf3K0V7W-134">
          <mxGeometry x="205" y="85" width="30" height="30" as="geometry" />
        </mxCell>
        <mxCell id="dnJYd_XQ4KpiOf3K0V7W-43" value="0" style="text;html=1;align=center;verticalAlign=middle;whiteSpace=wrap;rounded=0;" vertex="1" parent="dnJYd_XQ4KpiOf3K0V7W-134">
          <mxGeometry x="245" y="85" width="30" height="30" as="geometry" />
        </mxCell>
        <mxCell id="dnJYd_XQ4KpiOf3K0V7W-44" value="0" style="text;html=1;align=center;verticalAlign=middle;whiteSpace=wrap;rounded=0;" vertex="1" parent="dnJYd_XQ4KpiOf3K0V7W-134">
          <mxGeometry x="285" y="85" width="30" height="30" as="geometry" />
        </mxCell>
        <mxCell id="dnJYd_XQ4KpiOf3K0V7W-45" value="0" style="text;html=1;align=center;verticalAlign=middle;whiteSpace=wrap;rounded=0;" vertex="1" parent="dnJYd_XQ4KpiOf3K0V7W-134">
          <mxGeometry x="323.5" y="85" width="30" height="30" as="geometry" />
        </mxCell>
        <mxCell id="dnJYd_XQ4KpiOf3K0V7W-46" value="0" style="text;html=1;align=center;verticalAlign=middle;whiteSpace=wrap;rounded=0;" vertex="1" parent="dnJYd_XQ4KpiOf3K0V7W-134">
          <mxGeometry x="363.5" y="85" width="30" height="30" as="geometry" />
        </mxCell>
        <mxCell id="dnJYd_XQ4KpiOf3K0V7W-47" value="0" style="text;html=1;align=center;verticalAlign=middle;whiteSpace=wrap;rounded=0;" vertex="1" parent="dnJYd_XQ4KpiOf3K0V7W-134">
          <mxGeometry x="5" y="125" width="30" height="30" as="geometry" />
        </mxCell>
        <mxCell id="dnJYd_XQ4KpiOf3K0V7W-48" value="0" style="text;html=1;align=center;verticalAlign=middle;whiteSpace=wrap;rounded=0;" vertex="1" parent="dnJYd_XQ4KpiOf3K0V7W-134">
          <mxGeometry x="45" y="125" width="30" height="30" as="geometry" />
        </mxCell>
        <mxCell id="dnJYd_XQ4KpiOf3K0V7W-49" value="0" style="text;html=1;align=center;verticalAlign=middle;whiteSpace=wrap;rounded=0;" vertex="1" parent="dnJYd_XQ4KpiOf3K0V7W-134">
          <mxGeometry x="85" y="125" width="30" height="30" as="geometry" />
        </mxCell>
        <mxCell id="dnJYd_XQ4KpiOf3K0V7W-50" value="0" style="text;html=1;align=center;verticalAlign=middle;whiteSpace=wrap;rounded=0;" vertex="1" parent="dnJYd_XQ4KpiOf3K0V7W-134">
          <mxGeometry x="125" y="125" width="30" height="30" as="geometry" />
        </mxCell>
        <mxCell id="dnJYd_XQ4KpiOf3K0V7W-51" value="0" style="text;html=1;align=center;verticalAlign=middle;whiteSpace=wrap;rounded=0;" vertex="1" parent="dnJYd_XQ4KpiOf3K0V7W-134">
          <mxGeometry x="165" y="125" width="30" height="30" as="geometry" />
        </mxCell>
        <mxCell id="dnJYd_XQ4KpiOf3K0V7W-52" value="0" style="text;html=1;align=center;verticalAlign=middle;whiteSpace=wrap;rounded=0;" vertex="1" parent="dnJYd_XQ4KpiOf3K0V7W-134">
          <mxGeometry x="205" y="125" width="30" height="30" as="geometry" />
        </mxCell>
        <mxCell id="dnJYd_XQ4KpiOf3K0V7W-53" value="0" style="text;html=1;align=center;verticalAlign=middle;whiteSpace=wrap;rounded=0;" vertex="1" parent="dnJYd_XQ4KpiOf3K0V7W-134">
          <mxGeometry x="245" y="125" width="30" height="30" as="geometry" />
        </mxCell>
        <mxCell id="dnJYd_XQ4KpiOf3K0V7W-54" value="0" style="text;html=1;align=center;verticalAlign=middle;whiteSpace=wrap;rounded=0;" vertex="1" parent="dnJYd_XQ4KpiOf3K0V7W-134">
          <mxGeometry x="285" y="125" width="30" height="30" as="geometry" />
        </mxCell>
        <mxCell id="dnJYd_XQ4KpiOf3K0V7W-55" value="0" style="text;html=1;align=center;verticalAlign=middle;whiteSpace=wrap;rounded=0;" vertex="1" parent="dnJYd_XQ4KpiOf3K0V7W-134">
          <mxGeometry x="323.5" y="125" width="30" height="30" as="geometry" />
        </mxCell>
        <mxCell id="dnJYd_XQ4KpiOf3K0V7W-56" value="0" style="text;html=1;align=center;verticalAlign=middle;whiteSpace=wrap;rounded=0;" vertex="1" parent="dnJYd_XQ4KpiOf3K0V7W-134">
          <mxGeometry x="363.5" y="125" width="30" height="30" as="geometry" />
        </mxCell>
        <mxCell id="dnJYd_XQ4KpiOf3K0V7W-57" value="0" style="text;html=1;align=center;verticalAlign=middle;whiteSpace=wrap;rounded=0;" vertex="1" parent="dnJYd_XQ4KpiOf3K0V7W-134">
          <mxGeometry x="5" y="165" width="30" height="30" as="geometry" />
        </mxCell>
        <mxCell id="dnJYd_XQ4KpiOf3K0V7W-58" value="0" style="text;html=1;align=center;verticalAlign=middle;whiteSpace=wrap;rounded=0;" vertex="1" parent="dnJYd_XQ4KpiOf3K0V7W-134">
          <mxGeometry x="45" y="165" width="30" height="30" as="geometry" />
        </mxCell>
        <mxCell id="dnJYd_XQ4KpiOf3K0V7W-59" value="0" style="text;html=1;align=center;verticalAlign=middle;whiteSpace=wrap;rounded=0;" vertex="1" parent="dnJYd_XQ4KpiOf3K0V7W-134">
          <mxGeometry x="85" y="165" width="30" height="30" as="geometry" />
        </mxCell>
        <mxCell id="dnJYd_XQ4KpiOf3K0V7W-60" value="0" style="text;html=1;align=center;verticalAlign=middle;whiteSpace=wrap;rounded=0;" vertex="1" parent="dnJYd_XQ4KpiOf3K0V7W-134">
          <mxGeometry x="125" y="165" width="30" height="30" as="geometry" />
        </mxCell>
        <mxCell id="dnJYd_XQ4KpiOf3K0V7W-61" value="0" style="text;html=1;align=center;verticalAlign=middle;whiteSpace=wrap;rounded=0;" vertex="1" parent="dnJYd_XQ4KpiOf3K0V7W-134">
          <mxGeometry x="165" y="165" width="30" height="30" as="geometry" />
        </mxCell>
        <mxCell id="dnJYd_XQ4KpiOf3K0V7W-62" value="0" style="text;html=1;align=center;verticalAlign=middle;whiteSpace=wrap;rounded=0;" vertex="1" parent="dnJYd_XQ4KpiOf3K0V7W-134">
          <mxGeometry x="205" y="165" width="30" height="30" as="geometry" />
        </mxCell>
        <mxCell id="dnJYd_XQ4KpiOf3K0V7W-63" value="0" style="text;html=1;align=center;verticalAlign=middle;whiteSpace=wrap;rounded=0;" vertex="1" parent="dnJYd_XQ4KpiOf3K0V7W-134">
          <mxGeometry x="245" y="165" width="30" height="30" as="geometry" />
        </mxCell>
        <mxCell id="dnJYd_XQ4KpiOf3K0V7W-64" value="0" style="text;html=1;align=center;verticalAlign=middle;whiteSpace=wrap;rounded=0;" vertex="1" parent="dnJYd_XQ4KpiOf3K0V7W-134">
          <mxGeometry x="285" y="165" width="30" height="30" as="geometry" />
        </mxCell>
        <mxCell id="dnJYd_XQ4KpiOf3K0V7W-65" value="0" style="text;html=1;align=center;verticalAlign=middle;whiteSpace=wrap;rounded=0;" vertex="1" parent="dnJYd_XQ4KpiOf3K0V7W-134">
          <mxGeometry x="323.5" y="165" width="30" height="30" as="geometry" />
        </mxCell>
        <mxCell id="dnJYd_XQ4KpiOf3K0V7W-66" value="0" style="text;html=1;align=center;verticalAlign=middle;whiteSpace=wrap;rounded=0;" vertex="1" parent="dnJYd_XQ4KpiOf3K0V7W-134">
          <mxGeometry x="363.5" y="165" width="30" height="30" as="geometry" />
        </mxCell>
        <mxCell id="dnJYd_XQ4KpiOf3K0V7W-67" value="0" style="text;html=1;align=center;verticalAlign=middle;whiteSpace=wrap;rounded=0;" vertex="1" parent="dnJYd_XQ4KpiOf3K0V7W-134">
          <mxGeometry x="5" y="205" width="30" height="30" as="geometry" />
        </mxCell>
        <mxCell id="dnJYd_XQ4KpiOf3K0V7W-68" value="0" style="text;html=1;align=center;verticalAlign=middle;whiteSpace=wrap;rounded=0;" vertex="1" parent="dnJYd_XQ4KpiOf3K0V7W-134">
          <mxGeometry x="45" y="205" width="30" height="30" as="geometry" />
        </mxCell>
        <mxCell id="dnJYd_XQ4KpiOf3K0V7W-69" value="0" style="text;html=1;align=center;verticalAlign=middle;whiteSpace=wrap;rounded=0;" vertex="1" parent="dnJYd_XQ4KpiOf3K0V7W-134">
          <mxGeometry x="85" y="205" width="30" height="30" as="geometry" />
        </mxCell>
        <mxCell id="dnJYd_XQ4KpiOf3K0V7W-70" value="0" style="text;html=1;align=center;verticalAlign=middle;whiteSpace=wrap;rounded=0;" vertex="1" parent="dnJYd_XQ4KpiOf3K0V7W-134">
          <mxGeometry x="125" y="205" width="30" height="30" as="geometry" />
        </mxCell>
        <mxCell id="dnJYd_XQ4KpiOf3K0V7W-71" value="0" style="text;html=1;align=center;verticalAlign=middle;whiteSpace=wrap;rounded=0;" vertex="1" parent="dnJYd_XQ4KpiOf3K0V7W-134">
          <mxGeometry x="165" y="205" width="30" height="30" as="geometry" />
        </mxCell>
        <mxCell id="dnJYd_XQ4KpiOf3K0V7W-72" value="0" style="text;html=1;align=center;verticalAlign=middle;whiteSpace=wrap;rounded=0;" vertex="1" parent="dnJYd_XQ4KpiOf3K0V7W-134">
          <mxGeometry x="205" y="205" width="30" height="30" as="geometry" />
        </mxCell>
        <mxCell id="dnJYd_XQ4KpiOf3K0V7W-73" value="0" style="text;html=1;align=center;verticalAlign=middle;whiteSpace=wrap;rounded=0;" vertex="1" parent="dnJYd_XQ4KpiOf3K0V7W-134">
          <mxGeometry x="245" y="205" width="30" height="30" as="geometry" />
        </mxCell>
        <mxCell id="dnJYd_XQ4KpiOf3K0V7W-74" value="0" style="text;html=1;align=center;verticalAlign=middle;whiteSpace=wrap;rounded=0;" vertex="1" parent="dnJYd_XQ4KpiOf3K0V7W-134">
          <mxGeometry x="285" y="205" width="30" height="30" as="geometry" />
        </mxCell>
        <mxCell id="dnJYd_XQ4KpiOf3K0V7W-75" value="0" style="text;html=1;align=center;verticalAlign=middle;whiteSpace=wrap;rounded=0;" vertex="1" parent="dnJYd_XQ4KpiOf3K0V7W-134">
          <mxGeometry x="323.5" y="205" width="30" height="30" as="geometry" />
        </mxCell>
        <mxCell id="dnJYd_XQ4KpiOf3K0V7W-76" value="0" style="text;html=1;align=center;verticalAlign=middle;whiteSpace=wrap;rounded=0;" vertex="1" parent="dnJYd_XQ4KpiOf3K0V7W-134">
          <mxGeometry x="363.5" y="205" width="30" height="30" as="geometry" />
        </mxCell>
        <mxCell id="dnJYd_XQ4KpiOf3K0V7W-77" value="0" style="text;html=1;align=center;verticalAlign=middle;whiteSpace=wrap;rounded=0;" vertex="1" parent="dnJYd_XQ4KpiOf3K0V7W-134">
          <mxGeometry x="5" y="245" width="30" height="30" as="geometry" />
        </mxCell>
        <mxCell id="dnJYd_XQ4KpiOf3K0V7W-78" value="0" style="text;html=1;align=center;verticalAlign=middle;whiteSpace=wrap;rounded=0;" vertex="1" parent="dnJYd_XQ4KpiOf3K0V7W-134">
          <mxGeometry x="45" y="245" width="30" height="30" as="geometry" />
        </mxCell>
        <mxCell id="dnJYd_XQ4KpiOf3K0V7W-79" value="0" style="text;html=1;align=center;verticalAlign=middle;whiteSpace=wrap;rounded=0;" vertex="1" parent="dnJYd_XQ4KpiOf3K0V7W-134">
          <mxGeometry x="85" y="245" width="30" height="30" as="geometry" />
        </mxCell>
        <mxCell id="dnJYd_XQ4KpiOf3K0V7W-80" value="0" style="text;html=1;align=center;verticalAlign=middle;whiteSpace=wrap;rounded=0;" vertex="1" parent="dnJYd_XQ4KpiOf3K0V7W-134">
          <mxGeometry x="125" y="245" width="30" height="30" as="geometry" />
        </mxCell>
        <mxCell id="dnJYd_XQ4KpiOf3K0V7W-81" value="0" style="text;html=1;align=center;verticalAlign=middle;whiteSpace=wrap;rounded=0;" vertex="1" parent="dnJYd_XQ4KpiOf3K0V7W-134">
          <mxGeometry x="165" y="245" width="30" height="30" as="geometry" />
        </mxCell>
        <mxCell id="dnJYd_XQ4KpiOf3K0V7W-82" value="0" style="text;html=1;align=center;verticalAlign=middle;whiteSpace=wrap;rounded=0;" vertex="1" parent="dnJYd_XQ4KpiOf3K0V7W-134">
          <mxGeometry x="205" y="245" width="30" height="30" as="geometry" />
        </mxCell>
        <mxCell id="dnJYd_XQ4KpiOf3K0V7W-83" value="0" style="text;html=1;align=center;verticalAlign=middle;whiteSpace=wrap;rounded=0;" vertex="1" parent="dnJYd_XQ4KpiOf3K0V7W-134">
          <mxGeometry x="245" y="245" width="30" height="30" as="geometry" />
        </mxCell>
        <mxCell id="dnJYd_XQ4KpiOf3K0V7W-84" value="0" style="text;html=1;align=center;verticalAlign=middle;whiteSpace=wrap;rounded=0;" vertex="1" parent="dnJYd_XQ4KpiOf3K0V7W-134">
          <mxGeometry x="285" y="245" width="30" height="30" as="geometry" />
        </mxCell>
        <mxCell id="dnJYd_XQ4KpiOf3K0V7W-85" value="0" style="text;html=1;align=center;verticalAlign=middle;whiteSpace=wrap;rounded=0;" vertex="1" parent="dnJYd_XQ4KpiOf3K0V7W-134">
          <mxGeometry x="323.5" y="245" width="30" height="30" as="geometry" />
        </mxCell>
        <mxCell id="dnJYd_XQ4KpiOf3K0V7W-86" value="0" style="text;html=1;align=center;verticalAlign=middle;whiteSpace=wrap;rounded=0;" vertex="1" parent="dnJYd_XQ4KpiOf3K0V7W-134">
          <mxGeometry x="363.5" y="245" width="30" height="30" as="geometry" />
        </mxCell>
        <mxCell id="dnJYd_XQ4KpiOf3K0V7W-87" value="0" style="text;html=1;align=center;verticalAlign=middle;whiteSpace=wrap;rounded=0;" vertex="1" parent="dnJYd_XQ4KpiOf3K0V7W-134">
          <mxGeometry x="5" y="285" width="30" height="30" as="geometry" />
        </mxCell>
        <mxCell id="dnJYd_XQ4KpiOf3K0V7W-88" value="0" style="text;html=1;align=center;verticalAlign=middle;whiteSpace=wrap;rounded=0;" vertex="1" parent="dnJYd_XQ4KpiOf3K0V7W-134">
          <mxGeometry x="45" y="285" width="30" height="30" as="geometry" />
        </mxCell>
        <mxCell id="dnJYd_XQ4KpiOf3K0V7W-89" value="0" style="text;html=1;align=center;verticalAlign=middle;whiteSpace=wrap;rounded=0;" vertex="1" parent="dnJYd_XQ4KpiOf3K0V7W-134">
          <mxGeometry x="85" y="285" width="30" height="30" as="geometry" />
        </mxCell>
        <mxCell id="dnJYd_XQ4KpiOf3K0V7W-90" value="0" style="text;html=1;align=center;verticalAlign=middle;whiteSpace=wrap;rounded=0;" vertex="1" parent="dnJYd_XQ4KpiOf3K0V7W-134">
          <mxGeometry x="125" y="285" width="30" height="30" as="geometry" />
        </mxCell>
        <mxCell id="dnJYd_XQ4KpiOf3K0V7W-91" value="0" style="text;html=1;align=center;verticalAlign=middle;whiteSpace=wrap;rounded=0;" vertex="1" parent="dnJYd_XQ4KpiOf3K0V7W-134">
          <mxGeometry x="165" y="285" width="30" height="30" as="geometry" />
        </mxCell>
        <mxCell id="dnJYd_XQ4KpiOf3K0V7W-92" value="0" style="text;html=1;align=center;verticalAlign=middle;whiteSpace=wrap;rounded=0;" vertex="1" parent="dnJYd_XQ4KpiOf3K0V7W-134">
          <mxGeometry x="205" y="285" width="30" height="30" as="geometry" />
        </mxCell>
        <mxCell id="dnJYd_XQ4KpiOf3K0V7W-93" value="0" style="text;html=1;align=center;verticalAlign=middle;whiteSpace=wrap;rounded=0;" vertex="1" parent="dnJYd_XQ4KpiOf3K0V7W-134">
          <mxGeometry x="245" y="285" width="30" height="30" as="geometry" />
        </mxCell>
        <mxCell id="dnJYd_XQ4KpiOf3K0V7W-94" value="0" style="text;html=1;align=center;verticalAlign=middle;whiteSpace=wrap;rounded=0;" vertex="1" parent="dnJYd_XQ4KpiOf3K0V7W-134">
          <mxGeometry x="285" y="285" width="30" height="30" as="geometry" />
        </mxCell>
        <mxCell id="dnJYd_XQ4KpiOf3K0V7W-95" value="0" style="text;html=1;align=center;verticalAlign=middle;whiteSpace=wrap;rounded=0;" vertex="1" parent="dnJYd_XQ4KpiOf3K0V7W-134">
          <mxGeometry x="323.5" y="285" width="30" height="30" as="geometry" />
        </mxCell>
        <mxCell id="dnJYd_XQ4KpiOf3K0V7W-96" value="0" style="text;html=1;align=center;verticalAlign=middle;whiteSpace=wrap;rounded=0;" vertex="1" parent="dnJYd_XQ4KpiOf3K0V7W-134">
          <mxGeometry x="363.5" y="285" width="30" height="30" as="geometry" />
        </mxCell>
        <mxCell id="dnJYd_XQ4KpiOf3K0V7W-97" value="0" style="text;html=1;align=center;verticalAlign=middle;whiteSpace=wrap;rounded=0;" vertex="1" parent="dnJYd_XQ4KpiOf3K0V7W-134">
          <mxGeometry x="5" y="325" width="30" height="30" as="geometry" />
        </mxCell>
        <mxCell id="dnJYd_XQ4KpiOf3K0V7W-98" value="0" style="text;html=1;align=center;verticalAlign=middle;whiteSpace=wrap;rounded=0;" vertex="1" parent="dnJYd_XQ4KpiOf3K0V7W-134">
          <mxGeometry x="45" y="325" width="30" height="30" as="geometry" />
        </mxCell>
        <mxCell id="dnJYd_XQ4KpiOf3K0V7W-99" value="0" style="text;html=1;align=center;verticalAlign=middle;whiteSpace=wrap;rounded=0;" vertex="1" parent="dnJYd_XQ4KpiOf3K0V7W-134">
          <mxGeometry x="85" y="325" width="30" height="30" as="geometry" />
        </mxCell>
        <mxCell id="dnJYd_XQ4KpiOf3K0V7W-100" value="0" style="text;html=1;align=center;verticalAlign=middle;whiteSpace=wrap;rounded=0;" vertex="1" parent="dnJYd_XQ4KpiOf3K0V7W-134">
          <mxGeometry x="125" y="325" width="30" height="30" as="geometry" />
        </mxCell>
        <mxCell id="dnJYd_XQ4KpiOf3K0V7W-101" value="0" style="text;html=1;align=center;verticalAlign=middle;whiteSpace=wrap;rounded=0;" vertex="1" parent="dnJYd_XQ4KpiOf3K0V7W-134">
          <mxGeometry x="165" y="325" width="30" height="30" as="geometry" />
        </mxCell>
        <mxCell id="dnJYd_XQ4KpiOf3K0V7W-102" value="0" style="text;html=1;align=center;verticalAlign=middle;whiteSpace=wrap;rounded=0;" vertex="1" parent="dnJYd_XQ4KpiOf3K0V7W-134">
          <mxGeometry x="205" y="325" width="30" height="30" as="geometry" />
        </mxCell>
        <mxCell id="dnJYd_XQ4KpiOf3K0V7W-103" value="0" style="text;html=1;align=center;verticalAlign=middle;whiteSpace=wrap;rounded=0;" vertex="1" parent="dnJYd_XQ4KpiOf3K0V7W-134">
          <mxGeometry x="245" y="325" width="30" height="30" as="geometry" />
        </mxCell>
        <mxCell id="dnJYd_XQ4KpiOf3K0V7W-104" value="0" style="text;html=1;align=center;verticalAlign=middle;whiteSpace=wrap;rounded=0;" vertex="1" parent="dnJYd_XQ4KpiOf3K0V7W-134">
          <mxGeometry x="285" y="325" width="30" height="30" as="geometry" />
        </mxCell>
        <mxCell id="dnJYd_XQ4KpiOf3K0V7W-105" value="0" style="text;html=1;align=center;verticalAlign=middle;whiteSpace=wrap;rounded=0;" vertex="1" parent="dnJYd_XQ4KpiOf3K0V7W-134">
          <mxGeometry x="323.5" y="325" width="30" height="30" as="geometry" />
        </mxCell>
        <mxCell id="dnJYd_XQ4KpiOf3K0V7W-106" value="0" style="text;html=1;align=center;verticalAlign=middle;whiteSpace=wrap;rounded=0;" vertex="1" parent="dnJYd_XQ4KpiOf3K0V7W-134">
          <mxGeometry x="363.5" y="325" width="30" height="30" as="geometry" />
        </mxCell>
        <mxCell id="dnJYd_XQ4KpiOf3K0V7W-107" value="0" style="text;html=1;align=center;verticalAlign=middle;whiteSpace=wrap;rounded=0;" vertex="1" parent="dnJYd_XQ4KpiOf3K0V7W-134">
          <mxGeometry x="5" y="325" width="30" height="30" as="geometry" />
        </mxCell>
        <mxCell id="dnJYd_XQ4KpiOf3K0V7W-108" value="0" style="text;html=1;align=center;verticalAlign=middle;whiteSpace=wrap;rounded=0;" vertex="1" parent="dnJYd_XQ4KpiOf3K0V7W-134">
          <mxGeometry x="45" y="325" width="30" height="30" as="geometry" />
        </mxCell>
        <mxCell id="dnJYd_XQ4KpiOf3K0V7W-109" value="0" style="text;html=1;align=center;verticalAlign=middle;whiteSpace=wrap;rounded=0;" vertex="1" parent="dnJYd_XQ4KpiOf3K0V7W-134">
          <mxGeometry x="85" y="325" width="30" height="30" as="geometry" />
        </mxCell>
        <mxCell id="dnJYd_XQ4KpiOf3K0V7W-110" value="0" style="text;html=1;align=center;verticalAlign=middle;whiteSpace=wrap;rounded=0;" vertex="1" parent="dnJYd_XQ4KpiOf3K0V7W-134">
          <mxGeometry x="125" y="325" width="30" height="30" as="geometry" />
        </mxCell>
        <mxCell id="dnJYd_XQ4KpiOf3K0V7W-111" value="0" style="text;html=1;align=center;verticalAlign=middle;whiteSpace=wrap;rounded=0;" vertex="1" parent="dnJYd_XQ4KpiOf3K0V7W-134">
          <mxGeometry x="165" y="325" width="30" height="30" as="geometry" />
        </mxCell>
        <mxCell id="dnJYd_XQ4KpiOf3K0V7W-112" value="0" style="text;html=1;align=center;verticalAlign=middle;whiteSpace=wrap;rounded=0;" vertex="1" parent="dnJYd_XQ4KpiOf3K0V7W-134">
          <mxGeometry x="205" y="325" width="30" height="30" as="geometry" />
        </mxCell>
        <mxCell id="dnJYd_XQ4KpiOf3K0V7W-113" value="0" style="text;html=1;align=center;verticalAlign=middle;whiteSpace=wrap;rounded=0;" vertex="1" parent="dnJYd_XQ4KpiOf3K0V7W-134">
          <mxGeometry x="245" y="325" width="30" height="30" as="geometry" />
        </mxCell>
        <mxCell id="dnJYd_XQ4KpiOf3K0V7W-114" value="0" style="text;html=1;align=center;verticalAlign=middle;whiteSpace=wrap;rounded=0;" vertex="1" parent="dnJYd_XQ4KpiOf3K0V7W-134">
          <mxGeometry x="285" y="325" width="30" height="30" as="geometry" />
        </mxCell>
        <mxCell id="dnJYd_XQ4KpiOf3K0V7W-124" value="0" style="text;html=1;align=center;verticalAlign=middle;whiteSpace=wrap;rounded=0;" vertex="1" parent="dnJYd_XQ4KpiOf3K0V7W-134">
          <mxGeometry x="323.5" y="365" width="30" height="30" as="geometry" />
        </mxCell>
        <mxCell id="dnJYd_XQ4KpiOf3K0V7W-125" value="0" style="text;html=1;align=center;verticalAlign=middle;whiteSpace=wrap;rounded=0;" vertex="1" parent="dnJYd_XQ4KpiOf3K0V7W-134">
          <mxGeometry x="363.5" y="365" width="30" height="30" as="geometry" />
        </mxCell>
        <mxCell id="dnJYd_XQ4KpiOf3K0V7W-126" value="0" style="text;html=1;align=center;verticalAlign=middle;whiteSpace=wrap;rounded=0;" vertex="1" parent="dnJYd_XQ4KpiOf3K0V7W-134">
          <mxGeometry x="5" y="365" width="30" height="30" as="geometry" />
        </mxCell>
        <mxCell id="dnJYd_XQ4KpiOf3K0V7W-127" value="0" style="text;html=1;align=center;verticalAlign=middle;whiteSpace=wrap;rounded=0;" vertex="1" parent="dnJYd_XQ4KpiOf3K0V7W-134">
          <mxGeometry x="45" y="365" width="30" height="30" as="geometry" />
        </mxCell>
        <mxCell id="dnJYd_XQ4KpiOf3K0V7W-128" value="0" style="text;html=1;align=center;verticalAlign=middle;whiteSpace=wrap;rounded=0;" vertex="1" parent="dnJYd_XQ4KpiOf3K0V7W-134">
          <mxGeometry x="85" y="365" width="30" height="30" as="geometry" />
        </mxCell>
        <mxCell id="dnJYd_XQ4KpiOf3K0V7W-129" value="0" style="text;html=1;align=center;verticalAlign=middle;whiteSpace=wrap;rounded=0;" vertex="1" parent="dnJYd_XQ4KpiOf3K0V7W-134">
          <mxGeometry x="125" y="365" width="30" height="30" as="geometry" />
        </mxCell>
        <mxCell id="dnJYd_XQ4KpiOf3K0V7W-130" value="0" style="text;html=1;align=center;verticalAlign=middle;whiteSpace=wrap;rounded=0;" vertex="1" parent="dnJYd_XQ4KpiOf3K0V7W-134">
          <mxGeometry x="165" y="365" width="30" height="30" as="geometry" />
        </mxCell>
        <mxCell id="dnJYd_XQ4KpiOf3K0V7W-131" value="0" style="text;html=1;align=center;verticalAlign=middle;whiteSpace=wrap;rounded=0;" vertex="1" parent="dnJYd_XQ4KpiOf3K0V7W-134">
          <mxGeometry x="205" y="365" width="30" height="30" as="geometry" />
        </mxCell>
        <mxCell id="dnJYd_XQ4KpiOf3K0V7W-132" value="0" style="text;html=1;align=center;verticalAlign=middle;whiteSpace=wrap;rounded=0;" vertex="1" parent="dnJYd_XQ4KpiOf3K0V7W-134">
          <mxGeometry x="245" y="365" width="30" height="30" as="geometry" />
        </mxCell>
        <mxCell id="dnJYd_XQ4KpiOf3K0V7W-133" value="0" style="text;html=1;align=center;verticalAlign=middle;whiteSpace=wrap;rounded=0;" vertex="1" parent="dnJYd_XQ4KpiOf3K0V7W-134">
          <mxGeometry x="285" y="365" width="30" height="30" as="geometry" />
        </mxCell>
        <mxCell id="dnJYd_XQ4KpiOf3K0V7W-135" value="" style="group" vertex="1" connectable="0" parent="1">
          <mxGeometry x="490" y="20" width="400" height="400" as="geometry" />
        </mxCell>
        <mxCell id="dnJYd_XQ4KpiOf3K0V7W-136" value="" style="shape=stencil(rZfBboMwDEC/ZQcfmYBAgGOgdN/BRjaiUUDA2u7vF6Cg0tEobSxxwHby/JRIIQBJuiJrOLh2lR04kB24rmOfHVtm3lqRy1C+FXPBnuLTTZx1Df/op+Qxa0X2XvKp0vVt/c1PIu8vDFEVvBX9UCUp2EyOGR6SfNYt/2rrnypfFZayKMsJNqb2m4OaTLaZm1pXXZ1X/7bjeuaLZQ0vqQ/Mg4hCGkKcQhxBSoE5EFJZlUPuAw71cTA7T/0u6/K7iratZ0ApqivAsrR4iCV+BIKO0ALMuyHXPgTGIA0gZhDvTTbBQVlCHYbKAmMj9RgqC4JgocdQWXgIFnoMlYWPYKHHUFlQBAs9hsoiQLDQY6gsQgQLPYbKIkKw0GPMp10ALB6/PU+dds669VP2zxz2awvX2MJFsCDGFgTBwjO28BAsfGMLH8GCGltQBIvA2CJAsAiNLUIEi8jYInrIgiQyP17Qt2p3r/bjtH//BmN2+nMZE38=);whiteSpace=wrap;html=1;" vertex="1" parent="dnJYd_XQ4KpiOf3K0V7W-135">
          <mxGeometry width="400" height="400" as="geometry" />
        </mxCell>
        <mxCell id="dnJYd_XQ4KpiOf3K0V7W-137" value="0" style="text;html=1;align=center;verticalAlign=middle;whiteSpace=wrap;rounded=0;" vertex="1" parent="dnJYd_XQ4KpiOf3K0V7W-135">
          <mxGeometry x="5" y="5" width="30" height="30" as="geometry" />
        </mxCell>
        <mxCell id="dnJYd_XQ4KpiOf3K0V7W-138" value="0" style="text;html=1;align=center;verticalAlign=middle;whiteSpace=wrap;rounded=0;" vertex="1" parent="dnJYd_XQ4KpiOf3K0V7W-135">
          <mxGeometry x="45" y="5" width="30" height="30" as="geometry" />
        </mxCell>
        <mxCell id="dnJYd_XQ4KpiOf3K0V7W-139" value="0" style="text;html=1;align=center;verticalAlign=middle;whiteSpace=wrap;rounded=0;" vertex="1" parent="dnJYd_XQ4KpiOf3K0V7W-135">
          <mxGeometry x="85" y="5" width="30" height="30" as="geometry" />
        </mxCell>
        <mxCell id="dnJYd_XQ4KpiOf3K0V7W-140" value="0" style="text;html=1;align=center;verticalAlign=middle;whiteSpace=wrap;rounded=0;" vertex="1" parent="dnJYd_XQ4KpiOf3K0V7W-135">
          <mxGeometry x="125" y="5" width="30" height="30" as="geometry" />
        </mxCell>
        <mxCell id="dnJYd_XQ4KpiOf3K0V7W-141" value="0" style="text;html=1;align=center;verticalAlign=middle;whiteSpace=wrap;rounded=0;" vertex="1" parent="dnJYd_XQ4KpiOf3K0V7W-135">
          <mxGeometry x="165" y="5" width="30" height="30" as="geometry" />
        </mxCell>
        <mxCell id="dnJYd_XQ4KpiOf3K0V7W-142" value="0" style="text;html=1;align=center;verticalAlign=middle;whiteSpace=wrap;rounded=0;" vertex="1" parent="dnJYd_XQ4KpiOf3K0V7W-135">
          <mxGeometry x="205" y="5" width="30" height="30" as="geometry" />
        </mxCell>
        <mxCell id="dnJYd_XQ4KpiOf3K0V7W-143" value="0" style="text;html=1;align=center;verticalAlign=middle;whiteSpace=wrap;rounded=0;" vertex="1" parent="dnJYd_XQ4KpiOf3K0V7W-135">
          <mxGeometry x="245" y="5" width="30" height="30" as="geometry" />
        </mxCell>
        <mxCell id="dnJYd_XQ4KpiOf3K0V7W-144" value="0" style="text;html=1;align=center;verticalAlign=middle;whiteSpace=wrap;rounded=0;" vertex="1" parent="dnJYd_XQ4KpiOf3K0V7W-135">
          <mxGeometry x="285" y="5" width="30" height="30" as="geometry" />
        </mxCell>
        <mxCell id="dnJYd_XQ4KpiOf3K0V7W-145" value="0" style="text;html=1;align=center;verticalAlign=middle;whiteSpace=wrap;rounded=0;" vertex="1" parent="dnJYd_XQ4KpiOf3K0V7W-135">
          <mxGeometry x="323.5" y="5" width="30" height="30" as="geometry" />
        </mxCell>
        <mxCell id="dnJYd_XQ4KpiOf3K0V7W-146" value="0" style="text;html=1;align=center;verticalAlign=middle;whiteSpace=wrap;rounded=0;" vertex="1" parent="dnJYd_XQ4KpiOf3K0V7W-135">
          <mxGeometry x="363.5" y="5" width="30" height="30" as="geometry" />
        </mxCell>
        <mxCell id="dnJYd_XQ4KpiOf3K0V7W-147" value="0" style="text;html=1;align=center;verticalAlign=middle;whiteSpace=wrap;rounded=0;" vertex="1" parent="dnJYd_XQ4KpiOf3K0V7W-135">
          <mxGeometry x="5" y="45" width="30" height="30" as="geometry" />
        </mxCell>
        <mxCell id="dnJYd_XQ4KpiOf3K0V7W-148" value="0" style="text;html=1;align=center;verticalAlign=middle;whiteSpace=wrap;rounded=0;" vertex="1" parent="dnJYd_XQ4KpiOf3K0V7W-135">
          <mxGeometry x="45" y="45" width="30" height="30" as="geometry" />
        </mxCell>
        <mxCell id="dnJYd_XQ4KpiOf3K0V7W-149" value="0" style="text;html=1;align=center;verticalAlign=middle;whiteSpace=wrap;rounded=0;" vertex="1" parent="dnJYd_XQ4KpiOf3K0V7W-135">
          <mxGeometry x="85" y="45" width="30" height="30" as="geometry" />
        </mxCell>
        <mxCell id="dnJYd_XQ4KpiOf3K0V7W-150" value="0" style="text;html=1;align=center;verticalAlign=middle;whiteSpace=wrap;rounded=0;" vertex="1" parent="dnJYd_XQ4KpiOf3K0V7W-135">
          <mxGeometry x="125" y="45" width="30" height="30" as="geometry" />
        </mxCell>
        <mxCell id="dnJYd_XQ4KpiOf3K0V7W-151" value="0" style="text;html=1;align=center;verticalAlign=middle;whiteSpace=wrap;rounded=0;" vertex="1" parent="dnJYd_XQ4KpiOf3K0V7W-135">
          <mxGeometry x="165" y="45" width="30" height="30" as="geometry" />
        </mxCell>
        <mxCell id="dnJYd_XQ4KpiOf3K0V7W-152" value="0" style="text;html=1;align=center;verticalAlign=middle;whiteSpace=wrap;rounded=0;" vertex="1" parent="dnJYd_XQ4KpiOf3K0V7W-135">
          <mxGeometry x="205" y="45" width="30" height="30" as="geometry" />
        </mxCell>
        <mxCell id="dnJYd_XQ4KpiOf3K0V7W-153" value="0" style="text;html=1;align=center;verticalAlign=middle;whiteSpace=wrap;rounded=0;" vertex="1" parent="dnJYd_XQ4KpiOf3K0V7W-135">
          <mxGeometry x="245" y="45" width="30" height="30" as="geometry" />
        </mxCell>
        <mxCell id="dnJYd_XQ4KpiOf3K0V7W-154" value="0" style="text;html=1;align=center;verticalAlign=middle;whiteSpace=wrap;rounded=0;" vertex="1" parent="dnJYd_XQ4KpiOf3K0V7W-135">
          <mxGeometry x="285" y="45" width="30" height="30" as="geometry" />
        </mxCell>
        <mxCell id="dnJYd_XQ4KpiOf3K0V7W-155" value="0" style="text;html=1;align=center;verticalAlign=middle;whiteSpace=wrap;rounded=0;" vertex="1" parent="dnJYd_XQ4KpiOf3K0V7W-135">
          <mxGeometry x="323.5" y="45" width="30" height="30" as="geometry" />
        </mxCell>
        <mxCell id="dnJYd_XQ4KpiOf3K0V7W-156" value="0" style="text;html=1;align=center;verticalAlign=middle;whiteSpace=wrap;rounded=0;" vertex="1" parent="dnJYd_XQ4KpiOf3K0V7W-135">
          <mxGeometry x="363.5" y="45" width="30" height="30" as="geometry" />
        </mxCell>
        <mxCell id="dnJYd_XQ4KpiOf3K0V7W-157" value="0" style="text;html=1;align=center;verticalAlign=middle;whiteSpace=wrap;rounded=0;" vertex="1" parent="dnJYd_XQ4KpiOf3K0V7W-135">
          <mxGeometry x="5" y="85" width="30" height="30" as="geometry" />
        </mxCell>
        <mxCell id="dnJYd_XQ4KpiOf3K0V7W-158" value="0" style="text;html=1;align=center;verticalAlign=middle;whiteSpace=wrap;rounded=0;" vertex="1" parent="dnJYd_XQ4KpiOf3K0V7W-135">
          <mxGeometry x="45" y="85" width="30" height="30" as="geometry" />
        </mxCell>
        <mxCell id="dnJYd_XQ4KpiOf3K0V7W-159" value="0" style="text;html=1;align=center;verticalAlign=middle;whiteSpace=wrap;rounded=0;" vertex="1" parent="dnJYd_XQ4KpiOf3K0V7W-135">
          <mxGeometry x="85" y="85" width="30" height="30" as="geometry" />
        </mxCell>
        <mxCell id="dnJYd_XQ4KpiOf3K0V7W-160" value="0" style="text;html=1;align=center;verticalAlign=middle;whiteSpace=wrap;rounded=0;" vertex="1" parent="dnJYd_XQ4KpiOf3K0V7W-135">
          <mxGeometry x="125" y="85" width="30" height="30" as="geometry" />
        </mxCell>
        <mxCell id="dnJYd_XQ4KpiOf3K0V7W-161" value="0" style="text;html=1;align=center;verticalAlign=middle;whiteSpace=wrap;rounded=0;" vertex="1" parent="dnJYd_XQ4KpiOf3K0V7W-135">
          <mxGeometry x="165" y="85" width="30" height="30" as="geometry" />
        </mxCell>
        <mxCell id="dnJYd_XQ4KpiOf3K0V7W-162" value="0" style="text;html=1;align=center;verticalAlign=middle;whiteSpace=wrap;rounded=0;" vertex="1" parent="dnJYd_XQ4KpiOf3K0V7W-135">
          <mxGeometry x="205" y="85" width="30" height="30" as="geometry" />
        </mxCell>
        <mxCell id="dnJYd_XQ4KpiOf3K0V7W-163" value="0" style="text;html=1;align=center;verticalAlign=middle;whiteSpace=wrap;rounded=0;" vertex="1" parent="dnJYd_XQ4KpiOf3K0V7W-135">
          <mxGeometry x="245" y="85" width="30" height="30" as="geometry" />
        </mxCell>
        <mxCell id="dnJYd_XQ4KpiOf3K0V7W-164" value="0" style="text;html=1;align=center;verticalAlign=middle;whiteSpace=wrap;rounded=0;" vertex="1" parent="dnJYd_XQ4KpiOf3K0V7W-135">
          <mxGeometry x="285" y="85" width="30" height="30" as="geometry" />
        </mxCell>
        <mxCell id="dnJYd_XQ4KpiOf3K0V7W-165" value="0" style="text;html=1;align=center;verticalAlign=middle;whiteSpace=wrap;rounded=0;" vertex="1" parent="dnJYd_XQ4KpiOf3K0V7W-135">
          <mxGeometry x="323.5" y="85" width="30" height="30" as="geometry" />
        </mxCell>
        <mxCell id="dnJYd_XQ4KpiOf3K0V7W-166" value="0" style="text;html=1;align=center;verticalAlign=middle;whiteSpace=wrap;rounded=0;" vertex="1" parent="dnJYd_XQ4KpiOf3K0V7W-135">
          <mxGeometry x="363.5" y="85" width="30" height="30" as="geometry" />
        </mxCell>
        <mxCell id="dnJYd_XQ4KpiOf3K0V7W-167" value="0" style="text;html=1;align=center;verticalAlign=middle;whiteSpace=wrap;rounded=0;" vertex="1" parent="dnJYd_XQ4KpiOf3K0V7W-135">
          <mxGeometry x="5" y="125" width="30" height="30" as="geometry" />
        </mxCell>
        <mxCell id="dnJYd_XQ4KpiOf3K0V7W-168" value="0" style="text;html=1;align=center;verticalAlign=middle;whiteSpace=wrap;rounded=0;" vertex="1" parent="dnJYd_XQ4KpiOf3K0V7W-135">
          <mxGeometry x="45" y="125" width="30" height="30" as="geometry" />
        </mxCell>
        <mxCell id="dnJYd_XQ4KpiOf3K0V7W-169" value="0" style="text;html=1;align=center;verticalAlign=middle;whiteSpace=wrap;rounded=0;" vertex="1" parent="dnJYd_XQ4KpiOf3K0V7W-135">
          <mxGeometry x="85" y="125" width="30" height="30" as="geometry" />
        </mxCell>
        <mxCell id="dnJYd_XQ4KpiOf3K0V7W-170" value="0" style="text;html=1;align=center;verticalAlign=middle;whiteSpace=wrap;rounded=0;" vertex="1" parent="dnJYd_XQ4KpiOf3K0V7W-135">
          <mxGeometry x="125" y="125" width="30" height="30" as="geometry" />
        </mxCell>
        <mxCell id="dnJYd_XQ4KpiOf3K0V7W-171" value="0" style="text;html=1;align=center;verticalAlign=middle;whiteSpace=wrap;rounded=0;" vertex="1" parent="dnJYd_XQ4KpiOf3K0V7W-135">
          <mxGeometry x="165" y="125" width="30" height="30" as="geometry" />
        </mxCell>
        <mxCell id="dnJYd_XQ4KpiOf3K0V7W-172" value="0" style="text;html=1;align=center;verticalAlign=middle;whiteSpace=wrap;rounded=0;" vertex="1" parent="dnJYd_XQ4KpiOf3K0V7W-135">
          <mxGeometry x="205" y="125" width="30" height="30" as="geometry" />
        </mxCell>
        <mxCell id="dnJYd_XQ4KpiOf3K0V7W-173" value="0" style="text;html=1;align=center;verticalAlign=middle;whiteSpace=wrap;rounded=0;" vertex="1" parent="dnJYd_XQ4KpiOf3K0V7W-135">
          <mxGeometry x="245" y="125" width="30" height="30" as="geometry" />
        </mxCell>
        <mxCell id="dnJYd_XQ4KpiOf3K0V7W-174" value="0" style="text;html=1;align=center;verticalAlign=middle;whiteSpace=wrap;rounded=0;" vertex="1" parent="dnJYd_XQ4KpiOf3K0V7W-135">
          <mxGeometry x="285" y="125" width="30" height="30" as="geometry" />
        </mxCell>
        <mxCell id="dnJYd_XQ4KpiOf3K0V7W-175" value="0" style="text;html=1;align=center;verticalAlign=middle;whiteSpace=wrap;rounded=0;" vertex="1" parent="dnJYd_XQ4KpiOf3K0V7W-135">
          <mxGeometry x="323.5" y="125" width="30" height="30" as="geometry" />
        </mxCell>
        <mxCell id="dnJYd_XQ4KpiOf3K0V7W-176" value="0" style="text;html=1;align=center;verticalAlign=middle;whiteSpace=wrap;rounded=0;" vertex="1" parent="dnJYd_XQ4KpiOf3K0V7W-135">
          <mxGeometry x="363.5" y="125" width="30" height="30" as="geometry" />
        </mxCell>
        <mxCell id="dnJYd_XQ4KpiOf3K0V7W-177" value="0" style="text;html=1;align=center;verticalAlign=middle;whiteSpace=wrap;rounded=0;" vertex="1" parent="dnJYd_XQ4KpiOf3K0V7W-135">
          <mxGeometry x="5" y="165" width="30" height="30" as="geometry" />
        </mxCell>
        <mxCell id="dnJYd_XQ4KpiOf3K0V7W-178" value="0" style="text;html=1;align=center;verticalAlign=middle;whiteSpace=wrap;rounded=0;" vertex="1" parent="dnJYd_XQ4KpiOf3K0V7W-135">
          <mxGeometry x="45" y="165" width="30" height="30" as="geometry" />
        </mxCell>
        <mxCell id="dnJYd_XQ4KpiOf3K0V7W-179" value="0" style="text;html=1;align=center;verticalAlign=middle;whiteSpace=wrap;rounded=0;" vertex="1" parent="dnJYd_XQ4KpiOf3K0V7W-135">
          <mxGeometry x="85" y="165" width="30" height="30" as="geometry" />
        </mxCell>
        <mxCell id="dnJYd_XQ4KpiOf3K0V7W-180" value="0" style="text;html=1;align=center;verticalAlign=middle;whiteSpace=wrap;rounded=0;" vertex="1" parent="dnJYd_XQ4KpiOf3K0V7W-135">
          <mxGeometry x="125" y="165" width="30" height="30" as="geometry" />
        </mxCell>
        <mxCell id="dnJYd_XQ4KpiOf3K0V7W-181" value="0" style="text;html=1;align=center;verticalAlign=middle;whiteSpace=wrap;rounded=0;" vertex="1" parent="dnJYd_XQ4KpiOf3K0V7W-135">
          <mxGeometry x="165" y="165" width="30" height="30" as="geometry" />
        </mxCell>
        <mxCell id="dnJYd_XQ4KpiOf3K0V7W-182" value="0" style="text;html=1;align=center;verticalAlign=middle;whiteSpace=wrap;rounded=0;" vertex="1" parent="dnJYd_XQ4KpiOf3K0V7W-135">
          <mxGeometry x="205" y="165" width="30" height="30" as="geometry" />
        </mxCell>
        <mxCell id="dnJYd_XQ4KpiOf3K0V7W-183" value="0" style="text;html=1;align=center;verticalAlign=middle;whiteSpace=wrap;rounded=0;" vertex="1" parent="dnJYd_XQ4KpiOf3K0V7W-135">
          <mxGeometry x="245" y="165" width="30" height="30" as="geometry" />
        </mxCell>
        <mxCell id="dnJYd_XQ4KpiOf3K0V7W-184" value="0" style="text;html=1;align=center;verticalAlign=middle;whiteSpace=wrap;rounded=0;" vertex="1" parent="dnJYd_XQ4KpiOf3K0V7W-135">
          <mxGeometry x="285" y="165" width="30" height="30" as="geometry" />
        </mxCell>
        <mxCell id="dnJYd_XQ4KpiOf3K0V7W-185" value="0" style="text;html=1;align=center;verticalAlign=middle;whiteSpace=wrap;rounded=0;" vertex="1" parent="dnJYd_XQ4KpiOf3K0V7W-135">
          <mxGeometry x="323.5" y="165" width="30" height="30" as="geometry" />
        </mxCell>
        <mxCell id="dnJYd_XQ4KpiOf3K0V7W-186" value="0" style="text;html=1;align=center;verticalAlign=middle;whiteSpace=wrap;rounded=0;" vertex="1" parent="dnJYd_XQ4KpiOf3K0V7W-135">
          <mxGeometry x="363.5" y="165" width="30" height="30" as="geometry" />
        </mxCell>
        <mxCell id="dnJYd_XQ4KpiOf3K0V7W-187" value="0" style="text;html=1;align=center;verticalAlign=middle;whiteSpace=wrap;rounded=0;" vertex="1" parent="dnJYd_XQ4KpiOf3K0V7W-135">
          <mxGeometry x="5" y="205" width="30" height="30" as="geometry" />
        </mxCell>
        <mxCell id="dnJYd_XQ4KpiOf3K0V7W-188" value="0" style="text;html=1;align=center;verticalAlign=middle;whiteSpace=wrap;rounded=0;" vertex="1" parent="dnJYd_XQ4KpiOf3K0V7W-135">
          <mxGeometry x="45" y="205" width="30" height="30" as="geometry" />
        </mxCell>
        <mxCell id="dnJYd_XQ4KpiOf3K0V7W-189" value="0" style="text;html=1;align=center;verticalAlign=middle;whiteSpace=wrap;rounded=0;" vertex="1" parent="dnJYd_XQ4KpiOf3K0V7W-135">
          <mxGeometry x="85" y="205" width="30" height="30" as="geometry" />
        </mxCell>
        <mxCell id="dnJYd_XQ4KpiOf3K0V7W-190" value="0" style="text;html=1;align=center;verticalAlign=middle;whiteSpace=wrap;rounded=0;" vertex="1" parent="dnJYd_XQ4KpiOf3K0V7W-135">
          <mxGeometry x="125" y="205" width="30" height="30" as="geometry" />
        </mxCell>
        <mxCell id="dnJYd_XQ4KpiOf3K0V7W-191" value="0" style="text;html=1;align=center;verticalAlign=middle;whiteSpace=wrap;rounded=0;" vertex="1" parent="dnJYd_XQ4KpiOf3K0V7W-135">
          <mxGeometry x="165" y="205" width="30" height="30" as="geometry" />
        </mxCell>
        <mxCell id="dnJYd_XQ4KpiOf3K0V7W-192" value="0" style="text;html=1;align=center;verticalAlign=middle;whiteSpace=wrap;rounded=0;" vertex="1" parent="dnJYd_XQ4KpiOf3K0V7W-135">
          <mxGeometry x="205" y="205" width="30" height="30" as="geometry" />
        </mxCell>
        <mxCell id="dnJYd_XQ4KpiOf3K0V7W-193" value="0" style="text;html=1;align=center;verticalAlign=middle;whiteSpace=wrap;rounded=0;" vertex="1" parent="dnJYd_XQ4KpiOf3K0V7W-135">
          <mxGeometry x="245" y="205" width="30" height="30" as="geometry" />
        </mxCell>
        <mxCell id="dnJYd_XQ4KpiOf3K0V7W-194" value="0" style="text;html=1;align=center;verticalAlign=middle;whiteSpace=wrap;rounded=0;" vertex="1" parent="dnJYd_XQ4KpiOf3K0V7W-135">
          <mxGeometry x="285" y="205" width="30" height="30" as="geometry" />
        </mxCell>
        <mxCell id="dnJYd_XQ4KpiOf3K0V7W-195" value="0" style="text;html=1;align=center;verticalAlign=middle;whiteSpace=wrap;rounded=0;" vertex="1" parent="dnJYd_XQ4KpiOf3K0V7W-135">
          <mxGeometry x="323.5" y="205" width="30" height="30" as="geometry" />
        </mxCell>
        <mxCell id="dnJYd_XQ4KpiOf3K0V7W-196" value="0" style="text;html=1;align=center;verticalAlign=middle;whiteSpace=wrap;rounded=0;" vertex="1" parent="dnJYd_XQ4KpiOf3K0V7W-135">
          <mxGeometry x="363.5" y="205" width="30" height="30" as="geometry" />
        </mxCell>
        <mxCell id="dnJYd_XQ4KpiOf3K0V7W-197" value="0" style="text;html=1;align=center;verticalAlign=middle;whiteSpace=wrap;rounded=0;" vertex="1" parent="dnJYd_XQ4KpiOf3K0V7W-135">
          <mxGeometry x="5" y="245" width="30" height="30" as="geometry" />
        </mxCell>
        <mxCell id="dnJYd_XQ4KpiOf3K0V7W-198" value="0" style="text;html=1;align=center;verticalAlign=middle;whiteSpace=wrap;rounded=0;" vertex="1" parent="dnJYd_XQ4KpiOf3K0V7W-135">
          <mxGeometry x="45" y="245" width="30" height="30" as="geometry" />
        </mxCell>
        <mxCell id="dnJYd_XQ4KpiOf3K0V7W-199" value="0" style="text;html=1;align=center;verticalAlign=middle;whiteSpace=wrap;rounded=0;" vertex="1" parent="dnJYd_XQ4KpiOf3K0V7W-135">
          <mxGeometry x="85" y="245" width="30" height="30" as="geometry" />
        </mxCell>
        <mxCell id="dnJYd_XQ4KpiOf3K0V7W-200" value="0" style="text;html=1;align=center;verticalAlign=middle;whiteSpace=wrap;rounded=0;" vertex="1" parent="dnJYd_XQ4KpiOf3K0V7W-135">
          <mxGeometry x="125" y="245" width="30" height="30" as="geometry" />
        </mxCell>
        <mxCell id="dnJYd_XQ4KpiOf3K0V7W-201" value="0" style="text;html=1;align=center;verticalAlign=middle;whiteSpace=wrap;rounded=0;" vertex="1" parent="dnJYd_XQ4KpiOf3K0V7W-135">
          <mxGeometry x="165" y="245" width="30" height="30" as="geometry" />
        </mxCell>
        <mxCell id="dnJYd_XQ4KpiOf3K0V7W-202" value="0" style="text;html=1;align=center;verticalAlign=middle;whiteSpace=wrap;rounded=0;" vertex="1" parent="dnJYd_XQ4KpiOf3K0V7W-135">
          <mxGeometry x="205" y="245" width="30" height="30" as="geometry" />
        </mxCell>
        <mxCell id="dnJYd_XQ4KpiOf3K0V7W-203" value="0" style="text;html=1;align=center;verticalAlign=middle;whiteSpace=wrap;rounded=0;" vertex="1" parent="dnJYd_XQ4KpiOf3K0V7W-135">
          <mxGeometry x="245" y="245" width="30" height="30" as="geometry" />
        </mxCell>
        <mxCell id="dnJYd_XQ4KpiOf3K0V7W-204" value="0" style="text;html=1;align=center;verticalAlign=middle;whiteSpace=wrap;rounded=0;" vertex="1" parent="dnJYd_XQ4KpiOf3K0V7W-135">
          <mxGeometry x="285" y="245" width="30" height="30" as="geometry" />
        </mxCell>
        <mxCell id="dnJYd_XQ4KpiOf3K0V7W-205" value="0" style="text;html=1;align=center;verticalAlign=middle;whiteSpace=wrap;rounded=0;" vertex="1" parent="dnJYd_XQ4KpiOf3K0V7W-135">
          <mxGeometry x="323.5" y="245" width="30" height="30" as="geometry" />
        </mxCell>
        <mxCell id="dnJYd_XQ4KpiOf3K0V7W-206" value="0" style="text;html=1;align=center;verticalAlign=middle;whiteSpace=wrap;rounded=0;" vertex="1" parent="dnJYd_XQ4KpiOf3K0V7W-135">
          <mxGeometry x="363.5" y="245" width="30" height="30" as="geometry" />
        </mxCell>
        <mxCell id="dnJYd_XQ4KpiOf3K0V7W-207" value="0" style="text;html=1;align=center;verticalAlign=middle;whiteSpace=wrap;rounded=0;" vertex="1" parent="dnJYd_XQ4KpiOf3K0V7W-135">
          <mxGeometry x="5" y="285" width="30" height="30" as="geometry" />
        </mxCell>
        <mxCell id="dnJYd_XQ4KpiOf3K0V7W-208" value="0" style="text;html=1;align=center;verticalAlign=middle;whiteSpace=wrap;rounded=0;" vertex="1" parent="dnJYd_XQ4KpiOf3K0V7W-135">
          <mxGeometry x="45" y="285" width="30" height="30" as="geometry" />
        </mxCell>
        <mxCell id="dnJYd_XQ4KpiOf3K0V7W-209" value="0" style="text;html=1;align=center;verticalAlign=middle;whiteSpace=wrap;rounded=0;" vertex="1" parent="dnJYd_XQ4KpiOf3K0V7W-135">
          <mxGeometry x="85" y="285" width="30" height="30" as="geometry" />
        </mxCell>
        <mxCell id="dnJYd_XQ4KpiOf3K0V7W-210" value="0" style="text;html=1;align=center;verticalAlign=middle;whiteSpace=wrap;rounded=0;" vertex="1" parent="dnJYd_XQ4KpiOf3K0V7W-135">
          <mxGeometry x="125" y="285" width="30" height="30" as="geometry" />
        </mxCell>
        <mxCell id="dnJYd_XQ4KpiOf3K0V7W-211" value="0" style="text;html=1;align=center;verticalAlign=middle;whiteSpace=wrap;rounded=0;" vertex="1" parent="dnJYd_XQ4KpiOf3K0V7W-135">
          <mxGeometry x="165" y="285" width="30" height="30" as="geometry" />
        </mxCell>
        <mxCell id="dnJYd_XQ4KpiOf3K0V7W-212" value="0" style="text;html=1;align=center;verticalAlign=middle;whiteSpace=wrap;rounded=0;" vertex="1" parent="dnJYd_XQ4KpiOf3K0V7W-135">
          <mxGeometry x="205" y="285" width="30" height="30" as="geometry" />
        </mxCell>
        <mxCell id="dnJYd_XQ4KpiOf3K0V7W-213" value="0" style="text;html=1;align=center;verticalAlign=middle;whiteSpace=wrap;rounded=0;" vertex="1" parent="dnJYd_XQ4KpiOf3K0V7W-135">
          <mxGeometry x="245" y="285" width="30" height="30" as="geometry" />
        </mxCell>
        <mxCell id="dnJYd_XQ4KpiOf3K0V7W-214" value="0" style="text;html=1;align=center;verticalAlign=middle;whiteSpace=wrap;rounded=0;" vertex="1" parent="dnJYd_XQ4KpiOf3K0V7W-135">
          <mxGeometry x="285" y="285" width="30" height="30" as="geometry" />
        </mxCell>
        <mxCell id="dnJYd_XQ4KpiOf3K0V7W-215" value="0" style="text;html=1;align=center;verticalAlign=middle;whiteSpace=wrap;rounded=0;" vertex="1" parent="dnJYd_XQ4KpiOf3K0V7W-135">
          <mxGeometry x="323.5" y="285" width="30" height="30" as="geometry" />
        </mxCell>
        <mxCell id="dnJYd_XQ4KpiOf3K0V7W-216" value="0" style="text;html=1;align=center;verticalAlign=middle;whiteSpace=wrap;rounded=0;" vertex="1" parent="dnJYd_XQ4KpiOf3K0V7W-135">
          <mxGeometry x="363.5" y="285" width="30" height="30" as="geometry" />
        </mxCell>
        <mxCell id="dnJYd_XQ4KpiOf3K0V7W-217" value="0" style="text;html=1;align=center;verticalAlign=middle;whiteSpace=wrap;rounded=0;" vertex="1" parent="dnJYd_XQ4KpiOf3K0V7W-135">
          <mxGeometry x="5" y="325" width="30" height="30" as="geometry" />
        </mxCell>
        <mxCell id="dnJYd_XQ4KpiOf3K0V7W-218" value="0" style="text;html=1;align=center;verticalAlign=middle;whiteSpace=wrap;rounded=0;" vertex="1" parent="dnJYd_XQ4KpiOf3K0V7W-135">
          <mxGeometry x="45" y="325" width="30" height="30" as="geometry" />
        </mxCell>
        <mxCell id="dnJYd_XQ4KpiOf3K0V7W-219" value="0" style="text;html=1;align=center;verticalAlign=middle;whiteSpace=wrap;rounded=0;" vertex="1" parent="dnJYd_XQ4KpiOf3K0V7W-135">
          <mxGeometry x="85" y="325" width="30" height="30" as="geometry" />
        </mxCell>
        <mxCell id="dnJYd_XQ4KpiOf3K0V7W-220" value="0" style="text;html=1;align=center;verticalAlign=middle;whiteSpace=wrap;rounded=0;" vertex="1" parent="dnJYd_XQ4KpiOf3K0V7W-135">
          <mxGeometry x="125" y="325" width="30" height="30" as="geometry" />
        </mxCell>
        <mxCell id="dnJYd_XQ4KpiOf3K0V7W-221" value="0" style="text;html=1;align=center;verticalAlign=middle;whiteSpace=wrap;rounded=0;" vertex="1" parent="dnJYd_XQ4KpiOf3K0V7W-135">
          <mxGeometry x="165" y="325" width="30" height="30" as="geometry" />
        </mxCell>
        <mxCell id="dnJYd_XQ4KpiOf3K0V7W-222" value="0" style="text;html=1;align=center;verticalAlign=middle;whiteSpace=wrap;rounded=0;" vertex="1" parent="dnJYd_XQ4KpiOf3K0V7W-135">
          <mxGeometry x="205" y="325" width="30" height="30" as="geometry" />
        </mxCell>
        <mxCell id="dnJYd_XQ4KpiOf3K0V7W-223" value="0" style="text;html=1;align=center;verticalAlign=middle;whiteSpace=wrap;rounded=0;" vertex="1" parent="dnJYd_XQ4KpiOf3K0V7W-135">
          <mxGeometry x="245" y="325" width="30" height="30" as="geometry" />
        </mxCell>
        <mxCell id="dnJYd_XQ4KpiOf3K0V7W-224" value="0" style="text;html=1;align=center;verticalAlign=middle;whiteSpace=wrap;rounded=0;" vertex="1" parent="dnJYd_XQ4KpiOf3K0V7W-135">
          <mxGeometry x="285" y="325" width="30" height="30" as="geometry" />
        </mxCell>
        <mxCell id="dnJYd_XQ4KpiOf3K0V7W-225" value="0" style="text;html=1;align=center;verticalAlign=middle;whiteSpace=wrap;rounded=0;" vertex="1" parent="dnJYd_XQ4KpiOf3K0V7W-135">
          <mxGeometry x="323.5" y="325" width="30" height="30" as="geometry" />
        </mxCell>
        <mxCell id="dnJYd_XQ4KpiOf3K0V7W-226" value="0" style="text;html=1;align=center;verticalAlign=middle;whiteSpace=wrap;rounded=0;" vertex="1" parent="dnJYd_XQ4KpiOf3K0V7W-135">
          <mxGeometry x="363.5" y="325" width="30" height="30" as="geometry" />
        </mxCell>
        <mxCell id="dnJYd_XQ4KpiOf3K0V7W-227" value="0" style="text;html=1;align=center;verticalAlign=middle;whiteSpace=wrap;rounded=0;" vertex="1" parent="dnJYd_XQ4KpiOf3K0V7W-135">
          <mxGeometry x="5" y="325" width="30" height="30" as="geometry" />
        </mxCell>
        <mxCell id="dnJYd_XQ4KpiOf3K0V7W-228" value="0" style="text;html=1;align=center;verticalAlign=middle;whiteSpace=wrap;rounded=0;" vertex="1" parent="dnJYd_XQ4KpiOf3K0V7W-135">
          <mxGeometry x="45" y="325" width="30" height="30" as="geometry" />
        </mxCell>
        <mxCell id="dnJYd_XQ4KpiOf3K0V7W-229" value="0" style="text;html=1;align=center;verticalAlign=middle;whiteSpace=wrap;rounded=0;" vertex="1" parent="dnJYd_XQ4KpiOf3K0V7W-135">
          <mxGeometry x="85" y="325" width="30" height="30" as="geometry" />
        </mxCell>
        <mxCell id="dnJYd_XQ4KpiOf3K0V7W-230" value="0" style="text;html=1;align=center;verticalAlign=middle;whiteSpace=wrap;rounded=0;" vertex="1" parent="dnJYd_XQ4KpiOf3K0V7W-135">
          <mxGeometry x="125" y="325" width="30" height="30" as="geometry" />
        </mxCell>
        <mxCell id="dnJYd_XQ4KpiOf3K0V7W-231" value="0" style="text;html=1;align=center;verticalAlign=middle;whiteSpace=wrap;rounded=0;" vertex="1" parent="dnJYd_XQ4KpiOf3K0V7W-135">
          <mxGeometry x="165" y="325" width="30" height="30" as="geometry" />
        </mxCell>
        <mxCell id="dnJYd_XQ4KpiOf3K0V7W-232" value="0" style="text;html=1;align=center;verticalAlign=middle;whiteSpace=wrap;rounded=0;" vertex="1" parent="dnJYd_XQ4KpiOf3K0V7W-135">
          <mxGeometry x="205" y="325" width="30" height="30" as="geometry" />
        </mxCell>
        <mxCell id="dnJYd_XQ4KpiOf3K0V7W-233" value="0" style="text;html=1;align=center;verticalAlign=middle;whiteSpace=wrap;rounded=0;" vertex="1" parent="dnJYd_XQ4KpiOf3K0V7W-135">
          <mxGeometry x="245" y="325" width="30" height="30" as="geometry" />
        </mxCell>
        <mxCell id="dnJYd_XQ4KpiOf3K0V7W-234" value="0" style="text;html=1;align=center;verticalAlign=middle;whiteSpace=wrap;rounded=0;" vertex="1" parent="dnJYd_XQ4KpiOf3K0V7W-135">
          <mxGeometry x="285" y="325" width="30" height="30" as="geometry" />
        </mxCell>
        <mxCell id="dnJYd_XQ4KpiOf3K0V7W-235" value="0" style="text;html=1;align=center;verticalAlign=middle;whiteSpace=wrap;rounded=0;" vertex="1" parent="dnJYd_XQ4KpiOf3K0V7W-135">
          <mxGeometry x="323.5" y="365" width="30" height="30" as="geometry" />
        </mxCell>
        <mxCell id="dnJYd_XQ4KpiOf3K0V7W-236" value="0" style="text;html=1;align=center;verticalAlign=middle;whiteSpace=wrap;rounded=0;" vertex="1" parent="dnJYd_XQ4KpiOf3K0V7W-135">
          <mxGeometry x="363.5" y="365" width="30" height="30" as="geometry" />
        </mxCell>
        <mxCell id="dnJYd_XQ4KpiOf3K0V7W-237" value="0" style="text;html=1;align=center;verticalAlign=middle;whiteSpace=wrap;rounded=0;" vertex="1" parent="dnJYd_XQ4KpiOf3K0V7W-135">
          <mxGeometry x="5" y="365" width="30" height="30" as="geometry" />
        </mxCell>
        <mxCell id="dnJYd_XQ4KpiOf3K0V7W-238" value="0" style="text;html=1;align=center;verticalAlign=middle;whiteSpace=wrap;rounded=0;" vertex="1" parent="dnJYd_XQ4KpiOf3K0V7W-135">
          <mxGeometry x="45" y="365" width="30" height="30" as="geometry" />
        </mxCell>
        <mxCell id="dnJYd_XQ4KpiOf3K0V7W-239" value="0" style="text;html=1;align=center;verticalAlign=middle;whiteSpace=wrap;rounded=0;" vertex="1" parent="dnJYd_XQ4KpiOf3K0V7W-135">
          <mxGeometry x="85" y="365" width="30" height="30" as="geometry" />
        </mxCell>
        <mxCell id="dnJYd_XQ4KpiOf3K0V7W-240" value="0" style="text;html=1;align=center;verticalAlign=middle;whiteSpace=wrap;rounded=0;" vertex="1" parent="dnJYd_XQ4KpiOf3K0V7W-135">
          <mxGeometry x="125" y="365" width="30" height="30" as="geometry" />
        </mxCell>
        <mxCell id="dnJYd_XQ4KpiOf3K0V7W-241" value="0" style="text;html=1;align=center;verticalAlign=middle;whiteSpace=wrap;rounded=0;" vertex="1" parent="dnJYd_XQ4KpiOf3K0V7W-135">
          <mxGeometry x="165" y="365" width="30" height="30" as="geometry" />
        </mxCell>
        <mxCell id="dnJYd_XQ4KpiOf3K0V7W-242" value="0" style="text;html=1;align=center;verticalAlign=middle;whiteSpace=wrap;rounded=0;" vertex="1" parent="dnJYd_XQ4KpiOf3K0V7W-135">
          <mxGeometry x="205" y="365" width="30" height="30" as="geometry" />
        </mxCell>
        <mxCell id="dnJYd_XQ4KpiOf3K0V7W-243" value="0" style="text;html=1;align=center;verticalAlign=middle;whiteSpace=wrap;rounded=0;" vertex="1" parent="dnJYd_XQ4KpiOf3K0V7W-135">
          <mxGeometry x="245" y="365" width="30" height="30" as="geometry" />
        </mxCell>
        <mxCell id="dnJYd_XQ4KpiOf3K0V7W-244" value="0" style="text;html=1;align=center;verticalAlign=middle;whiteSpace=wrap;rounded=0;" vertex="1" parent="dnJYd_XQ4KpiOf3K0V7W-135">
          <mxGeometry x="285" y="365" width="30" height="30" as="geometry" />
        </mxCell>
      </root>
    </mxGraphModel>
  </diagram>
</mxfile>
